<svg xmlns="http://www.w3.org/2000/svg" width="36" height="36" viewBox="0 0 36 36" fill="none">
  <g filter="url(#filter0_dddddd_77_20)">
    <path d="M29.7927 22.0687H27.5859C27.2932 22.0687 27.0126 22.185 26.8056 22.3919C26.5987 22.5988 26.4824 22.8795 26.4824 23.1721V30.8962H4.41374V8.82748H14.3447C14.6373 8.82748 14.918 8.71123 15.1249 8.50429C15.3318 8.29736 15.4481 8.01669 15.4481 7.72405V5.51718C15.4481 5.22453 15.3318 4.94386 15.1249 4.73693C14.918 4.52999 14.6373 4.41374 14.3447 4.41374H3.31031C2.43236 4.41374 1.59037 4.7625 0.969566 5.38331C0.348763 6.00411 0 6.8461 0 7.72405L0 31.9996C0 32.8776 0.348763 33.7196 0.969566 34.3404C1.59037 34.9612 2.43236 35.3099 3.31031 35.3099H27.5859C28.4638 35.3099 29.3058 34.9612 29.9266 34.3404C30.5474 33.7196 30.8962 32.8776 30.8962 31.9996V23.1721C30.8962 22.8795 30.7799 22.5988 30.573 22.3919C30.3661 22.185 30.0854 22.0687 29.7927 22.0687ZM33.6548 0H24.8273C23.3535 0 22.617 1.78688 23.6549 2.82755L26.119 5.29166L9.31023 22.0942C9.15593 22.248 9.0335 22.4307 8.94996 22.6319C8.86642 22.8331 8.82342 23.0488 8.82342 23.2666C8.82342 23.4845 8.86642 23.7002 8.94996 23.9013C9.0335 24.1025 9.15593 24.2852 9.31023 24.439L10.8737 25.9997C11.0274 26.154 11.2101 26.2764 11.4113 26.36C11.6125 26.4435 11.8282 26.4865 12.0461 26.4865C12.2639 26.4865 12.4796 26.4435 12.6808 26.36C12.882 26.2764 13.0647 26.154 13.2185 25.9997L30.0189 9.19437L32.4824 11.655C33.5168 12.6895 35.3099 11.9654 35.3099 10.4826V1.65515C35.3099 1.21618 35.1355 0.795184 34.8251 0.484783C34.5147 0.174382 34.0937 0 33.6548 0Z" fill="white"/>
  </g>
  <defs>
    <filter id="filter0_dddddd_77_20" x="0" y="0" width="35.3099" height="35.3099" filterUnits="userSpaceOnUse" color-interpolation-filters="sRGB">
      <feFlood flood-opacity="0" result="BackgroundImageFix"/>
      <feColorMatrix in="SourceAlpha" type="matrix" values="0 0 0 0 0 0 0 0 0 0 0 0 0 0 0 0 0 0 127 0" result="hardAlpha"/>
      <feOffset/>
      <feColorMatrix type="matrix" values="0 0 0 0 1 0 0 0 0 1 0 0 0 0 1 0 0 0 1 0"/>
      <feBlend mode="normal" in2="BackgroundImageFix" result="effect1_dropShadow_77_20"/>
      <feColorMatrix in="SourceAlpha" type="matrix" values="0 0 0 0 0 0 0 0 0 0 0 0 0 0 0 0 0 0 127 0" result="hardAlpha"/>
      <feOffset/>
      <feColorMatrix type="matrix" values="0 0 0 0 1 0 0 0 0 1 0 0 0 0 1 0 0 0 1 0"/>
      <feBlend mode="normal" in2="effect1_dropShadow_77_20" result="effect2_dropShadow_77_20"/>
      <feColorMatrix in="SourceAlpha" type="matrix" values="0 0 0 0 0 0 0 0 0 0 0 0 0 0 0 0 0 0 127 0" result="hardAlpha"/>
      <feOffset/>
      <feColorMatrix type="matrix" values="0 0 0 0 1 0 0 0 0 1 0 0 0 0 1 0 0 0 1 0"/>
      <feBlend mode="normal" in2="effect2_dropShadow_77_20" result="effect3_dropShadow_77_20"/>
      <feColorMatrix in="SourceAlpha" type="matrix" values="0 0 0 0 0 0 0 0 0 0 0 0 0 0 0 0 0 0 127 0" result="hardAlpha"/>
      <feOffset/>
      <feColorMatrix type="matrix" values="0 0 0 0 1 0 0 0 0 1 0 0 0 0 1 0 0 0 1 0"/>
      <feBlend mode="normal" in2="effect3_dropShadow_77_20" result="effect4_dropShadow_77_20"/>
      <feColorMatrix in="SourceAlpha" type="matrix" values="0 0 0 0 0 0 0 0 0 0 0 0 0 0 0 0 0 0 127 0" result="hardAlpha"/>
      <feOffset/>
      <feColorMatrix type="matrix" values="0 0 0 0 1 0 0 0 0 1 0 0 0 0 1 0 0 0 1 0"/>
      <feBlend mode="normal" in2="effect4_dropShadow_77_20" result="effect5_dropShadow_77_20"/>
      <feColorMatrix in="SourceAlpha" type="matrix" values="0 0 0 0 0 0 0 0 0 0 0 0 0 0 0 0 0 0 127 0" result="hardAlpha"/>
      <feOffset/>
      <feColorMatrix type="matrix" values="0 0 0 0 1 0 0 0 0 1 0 0 0 0 1 0 0 0 1 0"/>
      <feBlend mode="normal" in2="effect5_dropShadow_77_20" result="effect6_dropShadow_77_20"/>
      <feBlend mode="normal" in="SourceGraphic" in2="effect6_dropShadow_77_20" result="shape"/>
    </filter>
  </defs>
</svg>