<svg xmlns="http://www.w3.org/2000/svg" width="27" height="23" viewBox="0 0 27 23" fill="none">
  <g filter="url(#filter0_dddddd_80_77)">
    <path d="M22.7985 2.06506C21.087 1.23355 19.2414 0.604185 17.3156 0.263305C17.2752 0.263411 17.2483 0.263481 17.2215 0.306793C16.9802 0.754253 16.7258 1.34589 16.5384 1.80762C14.4646 1.48154 12.405 1.48694 10.3866 1.82375C10.1971 1.34859 9.92651 0.772752 9.69664 0.326527C9.68312 0.297735 9.6427 0.283427 9.60232 0.283533C7.67818 0.648924 5.83541 1.27355 4.12774 2.11403C4.11428 2.11406 4.10085 2.12851 4.08742 2.14296C0.613716 7.73021 -0.329571 13.1811 0.153871 18.5562C0.153937 18.585 0.167464 18.6138 0.194419 18.6281C2.50045 20.4382 4.73752 21.5278 6.91989 22.2428C6.96028 22.2427 6.9872 22.2426 7.01406 22.2137C7.52384 21.4484 7.99317 20.6545 8.38163 19.8174C8.40846 19.7741 8.3814 19.7165 8.34095 19.6878C7.61335 19.387 6.91254 19.0285 6.23856 18.6267C6.18465 18.598 6.18445 18.5115 6.23819 18.4682C6.37254 18.3525 6.52035 18.2368 6.6547 18.1211C6.68156 18.0922 6.70848 18.0922 6.73547 18.1209C11.1422 20.257 15.921 20.2445 20.264 18.0854C20.2909 18.071 20.3313 18.0853 20.3583 18.0852C20.4931 18.2001 20.628 18.3295 20.7764 18.43C20.8303 18.4731 20.817 18.5452 20.7767 18.5886C20.1046 19.0083 19.4054 19.3705 18.6792 19.6607C18.6254 19.6753 18.6121 19.7329 18.6391 19.7905C19.0449 20.6255 19.5044 21.4314 20.0176 22.1796C20.0446 22.2084 20.0716 22.2227 20.1119 22.2082C22.3044 21.4673 24.5365 20.366 26.8342 18.5583C26.8477 18.5438 26.8611 18.515 26.8745 18.4861C27.4256 12.2723 25.9056 6.87112 22.8524 2.09375C22.8524 2.07934 22.8389 2.06496 22.812 2.06503L22.7985 2.06506ZM9.03085 15.2754C7.69819 15.2789 6.60486 13.9845 6.60116 12.3702C6.59747 10.7558 7.6714 9.45577 9.01753 9.45224C10.3637 9.44871 11.457 10.7575 11.4472 12.3575C11.4509 13.9574 10.377 15.2719 9.03085 15.2754ZM17.9826 15.2519C16.6499 15.2554 15.5566 13.961 15.5529 12.3467C15.5492 10.7324 16.6231 9.4323 17.9693 9.42877C19.3154 9.42524 20.4088 10.734 20.399 12.334C20.4026 13.9339 19.3422 15.2483 17.9826 15.2519Z" fill="white"/>
  </g>
  <defs>
    <filter id="filter0_dddddd_80_77" x="0.0358887" y="0.263306" width="26.9499" height="21.9795" filterUnits="userSpaceOnUse" color-interpolation-filters="sRGB">
      <feFlood flood-opacity="0" result="BackgroundImageFix"/>
      <feColorMatrix in="SourceAlpha" type="matrix" values="0 0 0 0 0 0 0 0 0 0 0 0 0 0 0 0 0 0 127 0" result="hardAlpha"/>
      <feOffset/>
      <feColorMatrix type="matrix" values="0 0 0 0 1 0 0 0 0 1 0 0 0 0 1 0 0 0 1 0"/>
      <feBlend mode="normal" in2="BackgroundImageFix" result="effect1_dropShadow_80_77"/>
      <feColorMatrix in="SourceAlpha" type="matrix" values="0 0 0 0 0 0 0 0 0 0 0 0 0 0 0 0 0 0 127 0" result="hardAlpha"/>
      <feOffset/>
      <feColorMatrix type="matrix" values="0 0 0 0 1 0 0 0 0 1 0 0 0 0 1 0 0 0 1 0"/>
      <feBlend mode="normal" in2="effect1_dropShadow_80_77" result="effect2_dropShadow_80_77"/>
      <feColorMatrix in="SourceAlpha" type="matrix" values="0 0 0 0 0 0 0 0 0 0 0 0 0 0 0 0 0 0 127 0" result="hardAlpha"/>
      <feOffset/>
      <feColorMatrix type="matrix" values="0 0 0 0 1 0 0 0 0 1 0 0 0 0 1 0 0 0 1 0"/>
      <feBlend mode="normal" in2="effect2_dropShadow_80_77" result="effect3_dropShadow_80_77"/>
      <feColorMatrix in="SourceAlpha" type="matrix" values="0 0 0 0 0 0 0 0 0 0 0 0 0 0 0 0 0 0 127 0" result="hardAlpha"/>
      <feOffset/>
      <feColorMatrix type="matrix" values="0 0 0 0 1 0 0 0 0 1 0 0 0 0 1 0 0 0 1 0"/>
      <feBlend mode="normal" in2="effect3_dropShadow_80_77" result="effect4_dropShadow_80_77"/>
      <feColorMatrix in="SourceAlpha" type="matrix" values="0 0 0 0 0 0 0 0 0 0 0 0 0 0 0 0 0 0 127 0" result="hardAlpha"/>
      <feOffset/>
      <feColorMatrix type="matrix" values="0 0 0 0 1 0 0 0 0 1 0 0 0 0 1 0 0 0 1 0"/>
      <feBlend mode="normal" in2="effect4_dropShadow_80_77" result="effect5_dropShadow_80_77"/>
      <feColorMatrix in="SourceAlpha" type="matrix" values="0 0 0 0 0 0 0 0 0 0 0 0 0 0 0 0 0 0 127 0" result="hardAlpha"/>
      <feOffset/>
      <feColorMatrix type="matrix" values="0 0 0 0 1 0 0 0 0 1 0 0 0 0 1 0 0 0 1 0"/>
      <feBlend mode="normal" in2="effect5_dropShadow_80_77" result="effect6_dropShadow_80_77"/>
      <feBlend mode="normal" in="SourceGraphic" in2="effect6_dropShadow_80_77" result="shape"/>
    </filter>
  </defs>
</svg>